<?xml version="1.0" encoding="utf-8"?>
<!-- Generator: Adobe Illustrator 22.1.0, SVG Export Plug-In . SVG Version: 6.00 Build 0)  -->
<svg version="1.1" id="Layer_1" xmlns="http://www.w3.org/2000/svg" xmlns:xlink="http://www.w3.org/1999/xlink" x="0px" y="0px"
	 viewBox="0 0 100 98.1" style="enable-background:new 0 0 100 98.1;" xml:space="preserve">
<style type="text/css">
	.st0{fill:url(#SVGID_1_);}
</style>
<linearGradient id="SVGID_1_" gradientUnits="userSpaceOnUse" x1="49.5697" y1="95.3664" x2="50.4415" y2="0.3423" gradientTransform="matrix(1 0 0 -1 0 96.9119)">
	<stop  offset="3.589744e-02" style="stop-color:#F1F9FB"/>
	<stop  offset="0.1113" style="stop-color:#ECF6F9"/>
	<stop  offset="0.1996" style="stop-color:#DCEDF1"/>
	<stop  offset="0.2944" style="stop-color:#C3DEE5"/>
	<stop  offset="0.3937" style="stop-color:#9EC9D3"/>
	<stop  offset="0.4967" style="stop-color:#6DB0BE"/>
	<stop  offset="0.6" style="stop-color:#0593A4"/>
	<stop  offset="0.6357" style="stop-color:#048EA0"/>
	<stop  offset="0.694" style="stop-color:#038093"/>
	<stop  offset="0.7676" style="stop-color:#096A7F"/>
	<stop  offset="0.8536" style="stop-color:#144D64"/>
	<stop  offset="0.949" style="stop-color:#1A2D48"/>
	<stop  offset="0.9872" style="stop-color:#1A213E"/>
</linearGradient>
<path class="st0" d="M51.2,96.6c0,0-0.5,0-0.5,0c-13.4,0.4-25.8-4.9-35.2-14.3C6.3,73.1,1.3,60.8,1.3,47.8s5.1-25.3,14.3-34.5
	c1.3-1.3,3.3-1.4,4.7-0.4C28.9,5.6,39.7,1.5,51.2,1.5c26.2,0,47.5,21.3,47.5,47.5S77.4,96.6,51.2,96.6z M50.6,89.2c0,0,0.6,0,0.7,0
	c22.2,0,40.2-18,40.2-40.2S73.4,8.8,51.2,8.8c-10.7,0-20.8,4.2-28.4,11.8c-1.2,1.2-3.1,1.4-4.5,0.5C12,28.6,8.6,37.9,8.6,47.8
	c0,11.1,4.3,21.5,12.1,29.3C28.7,85.1,39.3,89.6,50.6,89.2L50.6,89.2z"/>
</svg>
