<?xml version="1.0" encoding="utf-8"?>
<!-- Generator: Adobe Illustrator 22.1.0, SVG Export Plug-In . SVG Version: 6.00 Build 0)  -->
<svg version="1.1" id="Layer_1" xmlns="http://www.w3.org/2000/svg" xmlns:xlink="http://www.w3.org/1999/xlink" x="0px" y="0px"
	 viewBox="0 0 595.3 841.9" style="enable-background:new 0 0 595.3 841.9;" xml:space="preserve">
<style type="text/css">
	.st0{fill:#020203;}
</style>
<g>
	<path class="st0" d="M307,398H288c-1,0-1.8,0.8-1.8,1.8v41.4c0,1,0.8,1.8,1.8,1.8H307c1,0,1.8-0.8,1.8-1.8v-41.4
		C308.8,398.8,308,398,307,398z M308,441.2c0,0.6-0.5,1.1-1.1,1.1H288c-0.6,0-1.1-0.5-1.1-1.1v-4.6H308V441.2z M308,435.9H287v-30.7
		H308V435.9z M308,404.4H287v-4.6c0-0.6,0.5-1.1,1.1-1.1H307c0.6,0,1.1,0.5,1.1,1.1V404.4z"/>
	<path class="st0" d="M300.5,401.2h-6.4c-0.2,0-0.4,0.1-0.4,0.4c0,0.2,0.1,0.4,0.4,0.4h6.4c0.2,0,0.4-0.1,0.4-0.4
		C300.9,401.4,300.8,401.2,300.5,401.2z"/>
	<path class="st0" d="M297.3,441.6c1.2,0,2.1-1,2.1-2.1c0-1.2-1-2.1-2.1-2.1c-1.2,0-2.1,1-2.1,2.1
		C295.2,440.6,296.1,441.6,297.3,441.6z M297.3,438c0.8,0,1.4,0.6,1.4,1.4c0,0.8-0.6,1.4-1.4,1.4c-0.8,0-1.4-0.6-1.4-1.4
		C295.9,438.6,296.5,438,297.3,438z"/>
</g>
</svg>
