<?xml version="1.0" encoding="utf-8"?>
<!-- Generator: Adobe Illustrator 22.1.0, SVG Export Plug-In . SVG Version: 6.00 Build 0)  -->
<svg version="1.1" id="Layer_1" xmlns="http://www.w3.org/2000/svg" xmlns:xlink="http://www.w3.org/1999/xlink" x="0px" y="0px"
	 viewBox="0 0 595.3 841.9" style="enable-background:new 0 0 595.3 841.9;" xml:space="preserve">
<style type="text/css">
	.st0{fill:#020203;}
</style>
<g>
	<path class="st0" d="M322.6,398.4h-49.3c-1.2,0-2.1,0.9-2.1,2.1v33.1c0,1.2,0.9,2.1,2.1,2.1h18.9l-0.5,4.3c0,0.1-0.1,0.4-0.3,0.5
		l-1.2,1c-0.3,0.3-0.5,0.7-0.3,1.1c0.1,0.4,0.5,0.7,1,0.7h14.2c0.4,0,0.8-0.3,0.9-0.7c0.1-0.4,0-0.8-0.3-1.1l-1.2-1
		c-0.2-0.1-0.3-0.3-0.3-0.5l-0.5-4.3h19c1.2,0,2.1-0.9,2.1-2.1v-33.1C324.8,399.4,323.8,398.4,322.6,398.4z M303.9,441.4l1.2,1
		c0.1,0,0.1,0.1,0.1,0.2c0,0,0,0.1-0.1,0.1h-14.2c-0.1,0-0.1-0.1-0.2-0.1c0,0,0-0.1,0-0.2l1.2-0.9c0.3-0.2,0.6-0.6,0.6-1.1l0.5-4.5
		h9.7l0.5,4.5C303.4,440.7,303.6,441.1,303.9,441.4z M323.9,433.7c0,0.7-0.6,1.3-1.3,1.3h-19h-11.3h-19c-0.7,0-1.3-0.6-1.3-1.3v-5.5
		h51.8V433.7z M323.9,427.3h-51.8v-26.8c0-0.7,0.6-1.3,1.3-1.3h49.3c0.7,0,1.3,0.6,1.3,1.3V427.3z"/>
	<path class="st0" d="M298,434.1c1.4,0,2.5-1.1,2.5-2.5c0-1.4-1.1-2.5-2.5-2.5s-2.5,1.1-2.5,2.5C295.5,433,296.6,434.1,298,434.1z
		 M298,429.9c0.9,0,1.7,0.8,1.7,1.7s-0.8,1.7-1.7,1.7s-1.7-0.8-1.7-1.7S297.1,429.9,298,429.9z"/>
</g>
</svg>
